{
    "asset" : {
        "generator" : "Khronos glTF Blender I/O v1.4.40",
        "version" : "2.0"
    },
    "scene" : 0,
    "scenes" : [
        {
            "name" : "Scene",
            "nodes" : [
                0,
                1,
                2,
                3,
                4,
                5
            ]
        }
    ],
    "nodes" : [
        {
            "name" : "Light",
            "rotation" : [
                0.16907575726509094,
                0.7558803558349609,
                -0.27217137813568115,
                0.570947527885437
            ],
            "translation" : [
                4.076245307922363,
                5.903861999511719,
                -1.0054539442062378
            ]
        },
        {
            "name" : "Camera",
            "rotation" : [
                0.483536034822464,
                0.33687159419059753,
                -0.20870360732078552,
                0.7804827094078064
            ],
            "translation" : [
                7.358891487121582,
                4.958309173583984,
                6.925790786743164
            ]
        },
        {
            "mesh" : 0,
            "name" : "s.0010",
            "rotation" : [
                0.7071068286895752,
                0,
                0,
                0.7071067094802856
            ]
        },
        {
            "mesh" : 1,
            "name" : "p.0011",
            "rotation" : [
                0.7071068286895752,
                0,
                0,
                0.7071067094802856
            ],
            "translation" : [
                0.005188547074794769,
                0.14279603958129883,
                -0.13573306798934937
            ]
        },
        {
            "mesh" : 2,
            "name" : "p.0012",
            "rotation" : [
                0.7071068286895752,
                0,
                0,
                0.7071067094802856
            ],
            "translation" : [
                -0.008844656869769096,
                0.16838338971138,
                0.10859666764736176
            ]
        },
        {
            "mesh" : 3,
            "name" : "p.0013",
            "rotation" : [
                0.7071068286895752,
                0,
                0,
                0.7071067094802856
            ],
            "translation" : [
                0.20516519248485565,
                0.13251161575317383,
                -0.037665463984012604
            ]
        }
    ],
    "materials" : [
        {
            "doubleSided" : true,
            "name" : "StandardA88744.002",
            "pbrMetallicRoughness" : {
                "baseColorFactor" : [
                    0.6588234901428223,
                    0.5294117331504822,
                    0.2666667103767395,
                    1
                ],
                "metallicFactor" : 0
            }
        },
        {
            "doubleSided" : true,
            "name" : "Reflective4A7C47.002",
            "pbrMetallicRoughness" : {
                "baseColorFactor" : [
                    0.290196031332016,
                    0.4862745702266693,
                    0.27843138575553894,
                    1
                ],
                "metallicFactor" : 0,
                "roughnessFactor" : 0
            }
        },
        {
            "doubleSided" : true,
            "name" : "Standard9C5AA9.002",
            "pbrMetallicRoughness" : {
                "baseColorFactor" : [
                    0.6117647290229797,
                    0.3529411852359772,
                    0.6627450585365295,
                    1
                ],
                "metallicFactor" : 0
            }
        },
        {
            "doubleSided" : true,
            "name" : "Flat4A5E8B.002",
            "pbrMetallicRoughness" : {
                "baseColorFactor" : [
                    0.290196031332016,
                    0.36862748861312866,
                    0.545098066329956,
                    1
                ],
                "metallicFactor" : 0
            }
        }
    ],
    "meshes" : [
        {
            "name" : "s.0010",
            "primitives" : [
                {
                    "attributes" : {
                        "POSITION" : 0,
                        "NORMAL" : 1,
                        "TEXCOORD_0" : 2
                    },
                    "indices" : 3,
                    "material" : 0
                }
            ]
        },
        {
            "name" : "p.0011",
            "primitives" : [
                {
                    "attributes" : {
                        "POSITION" : 4,
                        "NORMAL" : 5,
                        "TEXCOORD_0" : 6
                    },
                    "indices" : 7,
                    "material" : 1
                }
            ]
        },
        {
            "name" : "p.0012",
            "primitives" : [
                {
                    "attributes" : {
                        "POSITION" : 8,
                        "NORMAL" : 9,
                        "TEXCOORD_0" : 10
                    },
                    "indices" : 11,
                    "material" : 2
                }
            ]
        },
        {
            "name" : "p.0013",
            "primitives" : [
                {
                    "attributes" : {
                        "POSITION" : 12,
                        "NORMAL" : 13,
                        "TEXCOORD_0" : 14
                    },
                    "indices" : 15,
                    "material" : 3
                }
            ]
        }
    ],
    "accessors" : [
        {
            "bufferView" : 0,
            "componentType" : 5126,
            "count" : 434,
            "max" : [
                0.3645704686641693,
                0.29116499423980713,
                0.14441466331481934
            ],
            "min" : [
                -0.2452898770570755,
                -0.3376828134059906,
                -0.00351201300509274
            ],
            "type" : "VEC3"
        },
        {
            "bufferView" : 1,
            "componentType" : 5126,
            "count" : 434,
            "type" : "VEC3"
        },
        {
            "bufferView" : 2,
            "componentType" : 5126,
            "count" : 434,
            "type" : "VEC2"
        },
        {
            "bufferView" : 3,
            "componentType" : 5123,
            "count" : 954,
            "type" : "SCALAR"
        },
        {
            "bufferView" : 4,
            "componentType" : 5126,
            "count" : 627,
            "max" : [
                0.06493960320949554,
                0.06482076644897461,
                0.06480476260185242
            ],
            "min" : [
                -0.06448419392108917,
                -0.06475020945072174,
                -0.06480477750301361
            ],
            "type" : "VEC3"
        },
        {
            "bufferView" : 5,
            "componentType" : 5126,
            "count" : 627,
            "type" : "VEC3"
        },
        {
            "bufferView" : 6,
            "componentType" : 5126,
            "count" : 627,
            "type" : "VEC2"
        },
        {
            "bufferView" : 7,
            "componentType" : 5123,
            "count" : 3750,
            "type" : "SCALAR"
        },
        {
            "bufferView" : 8,
            "componentType" : 5126,
            "count" : 20,
            "max" : [
                0.1052851676940918,
                0.06682507693767548,
                0.08308831602334976
            ],
            "min" : [
                -0.056504763662815094,
                -0.10294955968856812,
                -0.06312555074691772
            ],
            "type" : "VEC3"
        },
        {
            "bufferView" : 9,
            "componentType" : 5126,
            "count" : 20,
            "type" : "VEC3"
        },
        {
            "bufferView" : 10,
            "componentType" : 5126,
            "count" : 20,
            "type" : "VEC2"
        },
        {
            "bufferView" : 11,
            "componentType" : 5123,
            "count" : 30,
            "type" : "SCALAR"
        },
        {
            "bufferView" : 12,
            "componentType" : 5126,
            "count" : 24,
            "max" : [
                0.09398002922534943,
                0.0798330008983612,
                0.08344133198261261
            ],
            "min" : [
                -0.09398002922534943,
                -0.0798330008983612,
                -0.0834413468837738
            ],
            "type" : "VEC3"
        },
        {
            "bufferView" : 13,
            "componentType" : 5126,
            "count" : 24,
            "type" : "VEC3"
        },
        {
            "bufferView" : 14,
            "componentType" : 5126,
            "count" : 24,
            "type" : "VEC2"
        },
        {
            "bufferView" : 15,
            "componentType" : 5123,
            "count" : 36,
            "type" : "SCALAR"
        }
    ],
    "bufferViews" : [
        {
            "buffer" : 0,
            "byteLength" : 5208,
            "byteOffset" : 0
        },
        {
            "buffer" : 0,
            "byteLength" : 5208,
            "byteOffset" : 5208
        },
        {
            "buffer" : 0,
            "byteLength" : 3472,
            "byteOffset" : 10416
        },
        {
            "buffer" : 0,
            "byteLength" : 1908,
            "byteOffset" : 13888
        },
        {
            "buffer" : 0,
            "byteLength" : 7524,
            "byteOffset" : 15796
        },
        {
            "buffer" : 0,
            "byteLength" : 7524,
            "byteOffset" : 23320
        },
        {
            "buffer" : 0,
            "byteLength" : 5016,
            "byteOffset" : 30844
        },
        {
            "buffer" : 0,
            "byteLength" : 7500,
            "byteOffset" : 35860
        },
        {
            "buffer" : 0,
            "byteLength" : 240,
            "byteOffset" : 43360
        },
        {
            "buffer" : 0,
            "byteLength" : 240,
            "byteOffset" : 43600
        },
        {
            "buffer" : 0,
            "byteLength" : 160,
            "byteOffset" : 43840
        },
        {
            "buffer" : 0,
            "byteLength" : 60,
            "byteOffset" : 44000
        },
        {
            "buffer" : 0,
            "byteLength" : 288,
            "byteOffset" : 44060
        },
        {
            "buffer" : 0,
            "byteLength" : 288,
            "byteOffset" : 44348
        },
        {
            "buffer" : 0,
            "byteLength" : 192,
            "byteOffset" : 44636
        },
        {
            "buffer" : 0,
            "byteLength" : 72,
            "byteOffset" : 44828
        }
    ],
    "buffers" : [
        {
            "byteLength" : 44900,
            "uri" : "data:application/octet-stream;base64,"
        }
    ]
}
